# xmcd
#
# Track frame offsets:
#	150
#	13575
#	27675
#	45000
#	58950
#	75675
#	93600
#	107850
#	122550
#	137625
#	154725
#	168150
#	182250
#	199575
#	213525
#	230250
#	248175
#	262425
#	277125
#	292425
#
# Disc length: 4127 seconds
#
# Revision: 1
# Processed by: cddbd v1.5PL3 Copyright (c) Steve Scherf et al.
# Submitted via: audiograbber 1.82.02
#
DISCID=2a101d14
DTITLE=Various Artist - Country Hits Monthly
DYEAR=2000
DGENRE=Cdg
TTITLE0=Do what you gotta do
TTITLE1=The way you love me
TTITLE2=Real live woman
TTITLE3=Been there
TTITLE4=Buy me a rose
TTITLE5=Let's make sure we kiss goodbye
TTITLE6=What I need
TTITLE7=Can't nobody love you
TTITLE8=The look
TTITLE9=Carlene
TTITLE10=Vocal
TTITLE11=Vocal
TTITLE12=Vocal
TTITLE13=Vocal
TTITLE14=Vocal
TTITLE15=Vocal
TTITLE16=Vocal
TTITLE17=Vocal
TTITLE18=Vocal
TTITLE19=Vocal
EXTD=April 2000 Volume 0004-C
EXTT0=
EXTT1=
EXTT2=
EXTT3=
EXTT4=
EXTT5=
EXTT6=
EXTT7=
EXTT8=
EXTT9=
EXTT10=
EXTT11=
EXTT12=
EXTT13=
EXTT14=
EXTT15=
EXTT16=
EXTT17=
EXTT18=
EXTT19=
PLAYORDER=
